#define Unbenannt_width 16
#define Unbenannt_height 16
static unsigned char Unbenannt_bits[] = {
   0x80, 0x00, 0xc0, 0x01, 0xc0, 0x01, 0xe0, 0x03, 0xf0, 0x07, 0xf0, 0x07,
   0xf8, 0x0f, 0xf8, 0x0f, 0xe0, 0x03, 0xc8, 0x09, 0x98, 0x0c, 0x30, 0x06,
   0xf0, 0x07, 0xe0, 0x03, 0xc0, 0x01, 0x80, 0x00 };
